PathFileType	4	(X/Y/Z)	pose_F01_0-96.trc
DataRate	CameraRate	NumFrames	NumMarkers	Units	OrigDataRate	OrigDataStartFrame	OrigNumFrames
30	30	6	21	m	30	48	96
Frame#	Time	CHip			RHip			RKnee			RAnkle			RBigToe			RSmallToe			RHeel			LHip			LKnee			LAnkle			LBigToe			LSmallToe			LHeel			Neck			Nose			RShoulder			RElbow			RWrist			LShoulder			LElbow			LWrist			
		X1	Y1	Z1	X2	Y2	Z2	X3	Y3	Z3	X4	Y4	Z4	X5	Y5	Z5	X6	Y6	Z6	X7	Y7	Z7	X8	Y8	Z8	X9	Y9	Z9	X10	Y10	Z10	X11	Y11	Z11	X12	Y12	Z12	X13	Y13	Z13	X14	Y14	Z14	X15	Y15	Z15	X16	Y16	Z16	X17	Y17	Z17	X18	Y18	Z18	X19	Y19	Z19	X20	Y20	Z20	X21	Y21	Z21	
48	1.6	-0.21008373524170468	1.881708404830738	-0.5639887900886659	-0.22413013415876162	1.8796085169059125	-0.4920842303729007	-0.25906325934196617	1.731436444987707	-0.43385278861752413	-0.22018936940132344	1.6074551048619616	-0.4583890488710517	-0.24285568852904196	1.560688335237841	-0.42525984716395615	-0.24531590419069169	1.5736411494756186	-0.39387929191225246	-0.20946713124542538	1.6041522831290858	-0.47494814032517413	-0.1977771756266158	1.8835884068348192	-0.6281022647795184	-0.20841587094326322	1.723247330830658	-0.5982418624028735	-0.19602351075616745	1.5798066929235666	-0.5823004383527254	-0.21444795325012786	1.5356379013940573	-0.5754376300726316	-0.20468908172728256	1.542127808395405	-0.6076321142973866	-0.18740165329987918	1.571157150270574	-0.5730591084427413	-0.203089262804295	2.058123844813476	-0.5846192797096202	-0.22575051701876678	2.1319910147211396	-0.5620582286581017	-0.21564483539829704	2.0526685191326646	-0.49172017954547276	-0.2306203543671352	2.0040129321314115	-0.3606879029627154	-0.24867011032528594	2.0453026449037828	-0.3270446190559025	-0.19092351428719048	2.064843147404365	-0.678194311946947	-0.18873916637114357	2.0039218635544245	-0.7374414211529979	-0.20855494213248044	2.011216002662903	-0.713991204496512
49	1.6333333333333333	-0.21379386550746257	1.8891031393811766	-0.5604254651568946	-0.2257748152590998	1.8870174717095034	-0.49083750615030425	-0.2607567440614061	1.7439050917562688	-0.4333524262424285	-0.22033256475207746	1.6223139756113076	-0.4599255283641373	-0.24320205772197062	1.5710411968410076	-0.42894951669012454	-0.24531590419069169	1.5736411494756186	-0.39387929191225246	-0.21092361123085185	1.6215533445019226	-0.47957461485536085	-0.19923243617629607	1.8909429585383895	-0.626606868311137	-0.20687732793048458	1.7337725836503193	-0.5968049242147544	-0.19358232744229364	1.5838307421053104	-0.5852885385534986	-0.21534699577124758	1.5354050703455309	-0.5787003391036332	-0.20255036952086958	1.5422158156304382	-0.6098261821841198	-0.1862019369837152	1.5759226445726024	-0.5704876902431169	-0.20708183048885664	2.064350231156217	-0.5815244215458449	-0.22557816374441247	2.13897130003537	-0.5543327212499288	-0.2195784564162364	2.0564756864633758	-0.4884017257964298	-0.23573241181937202	2.0275328930353025	-0.3286679693023764	-0.2421087843125759	2.0828999489444784	-0.3413342250095496	-0.18993369293800183	2.0730436607987492	-0.6761475190657683	-0.20162847006114398	2.0292669648693917	-0.7379426129210473	-0.21292601030899935	2.065725449023547	-0.7187102590693885
50	1.6666666666666667	-0.21868253927858824	1.8981175319272128	-0.5517513517460912	-0.22851314939328385	1.8959316271417004	-0.4844434965914306	-0.25777630536273827	1.7501051586965815	-0.4331175561106807	-0.22317468719890687	1.618443751479732	-0.4560076584337401	-0.24791091327595763	1.5662751905494798	-0.42287672210752847	-0.24531590419069169	1.5736411494756186	-0.39387929191225246	-0.21353692669352567	1.613397123707896	-0.4753568522103858	-0.20464539421493277	1.8998472656579635	-0.61805028047283	-0.2136400744720567	1.7406317191660141	-0.5903635509130803	-0.20092555807616044	1.5893475526430616	-0.5826042597403706	-0.21380358117077403	1.5382451006059727	-0.5767290542270282	-0.20497974314551803	1.5448125928205754	-0.6121055659570036	-0.1949570369534269	1.580772877530468	-0.5706995010634346	-0.20682797450824456	2.0774972741915674	-0.5743410806731579	-0.22850676950649615	2.1474635829427084	-0.5486835771101485	-0.22004839906053797	2.070893260714224	-0.48523139417485184	-0.24079289873038917	2.04109688078097	-0.3176641007198142	-0.23473702795077098	2.1034407569016484	-0.36385765289888145	-0.18978628384860916	2.088545614714625	-0.6691202259217733	-0.21451777375114442	2.054612066184359	-0.7384438046890968	-0.21729707848551827	2.120234895384191	-0.7234293136422649
51	1.7	-0.21830733374102515	1.8991989476111824	-0.540286122157468	-0.23090381529720425	1.8972760935524038	-0.47398725637902495	-0.24923439717547133	1.7458268204840495	-0.44653922684932074	-0.23136162613350478	1.6046921049779863	-0.4497971418252207	-0.2516601166594405	1.5510330860816044	-0.435641761612343	-0.2509043605706719	1.5565390579615679	-0.40488958652042967	-0.2246779460116977	1.6010745747700894	-0.4619211235636046	-0.20824717112239896	1.9011089837275226	-0.6104733185168335	-0.23057327839840483	1.7412299403349991	-0.5725602912288756	-0.20328679813366882	1.597947267901349	-0.5723350235254925	-0.21669074944873462	1.5414366611380612	-0.5650336152469969	-0.20944230223359678	1.5470566126478436	-0.5991189723044223	-0.1979583360577695	1.5897119292618473	-0.5555173727227705	-0.21006179979439132	2.0815722424168164	-0.5692526370499432	-0.23137869249721227	2.154064514193596	-0.5449547290208405	-0.22208730678977545	2.0756740333857855	-0.47703839908017054	-0.2446346852092402	2.044475317871551	-0.3161722783668313	-0.23757432872398754	2.0997042357393205	-0.36562684486041735	-0.19352668000191542	2.0882174695174083	-0.6635900484059247	-0.21930902680917375	2.0511428807471788	-0.7246136231648053	-0.21221046783196018	2.124304846879363	-0.7085578776762544
52	1.7333333333333334	-0.22091879810282053	1.8903315651635675	-0.5366698649046452	-0.23226988024498205	1.8895037673241881	-0.4672968323438717	-0.24492405032507314	1.7302294343933364	-0.44502077456938766	-0.22942960578088759	1.583298187825649	-0.4403106257812225	-0.24756908957342622	1.5380505302816438	-0.4248680994013709	-0.2501344997712918	1.5559984906263613	-0.40186111748497055	-0.2208130265877406	1.579331013338193	-0.4543144848634174	-0.21021388437570454	1.8935463564207746	-0.604223477415123	-0.24029375996046629	1.7399636645693526	-0.5662893258096708	-0.2048876393652745	1.6057002050654323	-0.5582124815890661	-0.22427936284710845	1.5538240510241763	-0.5589381179809232	-0.21340398041405179	1.5614115917996376	-0.5883628509544857	-0.19684281789247474	1.6005935845855994	-0.5486002691136287	-0.21171206621210473	2.0671535182198477	-0.5624424942370423	-0.237134474295239	2.126651175287066	-0.5369589608899891	-0.22346869496180452	2.0640304909282765	-0.4696291876241234	-0.2447855333223962	2.027081993331722	-0.333497882286795	-0.21435521460057982	2.104162290813045	-0.39546280389550575	-0.19371139726706577	2.0707930704076416	-0.650857554748647	-0.20201350459728315	2.0207531161513947	-0.7067585220415791	-0.22070237010817484	2.0636354568012245	-0.680328217528286
53	1.7666666666666666	-0.2186767070179366	1.8652708478894355	-0.5316911685439265	-0.23018092303604853	1.86459662252266	-0.4620111036642548	-0.2471000675046656	1.71102368170202	-0.44015577849953036	-0.22537135490693452	1.5748172809036536	-0.43484731410602	-0.25140973858193183	1.531300888825737	-0.42033571947748116	-0.24936463897191175	1.5554579232911547	-0.39883264844951144	-0.21684575662050526	1.5666958474789647	-0.44770880523876777	-0.208865094508356	1.8685458671781208	-0.6025573525502725	-0.2504935276686966	1.7217615331583793	-0.5492534216699443	-0.2085091821322713	1.6024427645001174	-0.5491329257679041	-0.22000476704088237	1.5522995170063285	-0.5407191462296551	-0.21256768625990177	1.5610787432903468	-0.5711081755574158	-0.19736190624184996	1.6002299478839672	-0.538866936432718	-0.21900254712231262	2.034224092602128	-0.5505522183210921	-0.24039430315180454	2.100266569709067	-0.532024241173389	-0.23340959820103402	2.0294325972720295	-0.4496145440437442	-0.23756966568011806	1.9730542699560356	-0.36339186768421927	-0.22856653242189498	2.03545514506154	-0.3908282556677825	-0.20072794879350753	2.039200547348813	-0.6478935652581792	-0.2086082403457395	1.9705770681888723	-0.6772876876118745	-0.22919427238438952	2.002966066723086	-0.6520985573803175
